<svg xmlns="http://www.w3.org/2000/svg" xmlns:xlink="http://www.w3.org/1999/xlink" width="98.1" height="118" viewBox="0 0 98.1 118">
<path fill="#ff3e00" d="m91.8 15.6c0-10.9-8.8-19.7-19.7-19.7-3.1 0-6.0.8-8.5 2.2l-37.8 21.8c-5.9 3.4-10.1 9.2-11.5 15.9-1.4 6.7-.3 13.7 3.1 19.6-1.4 2.9-2.2 6.1-2.2 9.4 0 10.9 8.8 19.7 19.7 19.7 3.1 0 6.0-.8 8.5-2.2l37.8-21.8c5.9-3.4 10.1-9.2 11.5-15.9 1.4-6.7.3-13.7-3.1-19.6 1.4-2.9 2.2-6.1 2.2-9.4z"/>
<path fill="white" d="m40.9 103.9c-8.9 2.3-17.9-3.4-20.2-12.3s3.4-17.9 12.3-20.2c8.9-2.3 17.9 3.4 20.2 12.3s-3.4 17.9-12.3 20.2zm49.2-49.3c-8.9 2.3-17.9-3.4-20.2-12.3s3.4-17.9 12.3-20.2c8.9-2.3 17.9 3.4 20.2 12.3s-3.4 17.9-12.3 20.2z"/>
<path fill="#ff3e00" d="m39.4 91.2c-.9-7.5 4.4-14.3 11.9-15.2s14.3 4.4 15.2 11.9c.9 7.5-4.4 14.3-11.9 15.2s-14.3-4.4-15.2-11.9zm49.2-49.3c-.9-7.5 4.4-14.3 11.9-15.2s14.3 4.4 15.2 11.9c.9 7.5-4.4 14.3-11.9 15.2s-14.3-4.4-15.2-11.9z"/>
</svg>
